<svg version="1.1" xmlns="http://www.w3.org/2000/svg" xmlns:xlink="http://www.w3.org/1999/xlink" width="1106" height="157" viewBox="0,0,1106,157"><g transform="translate(313.39999,-229.4)"><g data-paper-data="{&quot;isPaintingLayer&quot;:true}" fill-rule="nonzero" stroke="none" stroke-width="0" stroke-linecap="butt" stroke-linejoin="miter" stroke-miterlimit="10" stroke-dasharray="" stroke-dashoffset="0" style="mix-blend-mode: normal"><g><path d="M-280.39998,386.40001v-157h520v157z" fill="#6e26ff"/><path d="M171.93335,386.40001l51.66667,-157h-66l-53,157z" fill="#7835ff"/><path d="M32.93335,386.40001l51.66667,-157h-66l-53,157z" fill="#7835ff"/><path d="M-108.06665,386.40001l51.66666,-157h-66l-53,157z" fill="#7835ff"/><path d="M-246.06665,386.40001l51.66667,-157h-66l-53,157z" fill="#7835ff"/></g><g data-paper-data="{&quot;index&quot;:null}"><path d="M239.60002,386.40001v-157h520v157z" fill="#6e26ff"/><path d="M307.26668,386.40001l-51.66666,-157h66l53,157z" fill="#7835ff"/><path d="M446.26668,386.40001l-51.66667,-157h66l53,157z" fill="#7835ff"/><path d="M587.26668,386.40001l-51.66666,-157h66l53,157z" fill="#7835ff"/><path d="M725.26668,386.40001l-51.66666,-157h66l53,157z" fill="#7835ff"/></g></g></g></svg>